<?xml version="1.0" encoding="UTF-8" standalone="no"?>
<!-- Created with Inkscape (http://www.inkscape.org/) -->

<svg
   xmlns:dc="http://purl.org/dc/elements/1.1/"
   xmlns:cc="http://creativecommons.org/ns#"
   xmlns:rdf="http://www.w3.org/1999/02/22-rdf-syntax-ns#"
   xmlns:svg="http://www.w3.org/2000/svg"
   xmlns="http://www.w3.org/2000/svg"
   xmlns:sodipodi="http://sodipodi.sourceforge.net/DTD/sodipodi-0.dtd"
   xmlns:inkscape="http://www.inkscape.org/namespaces/inkscape"
   width="253.78735mm"
   height="30mm"
   viewBox="0 0 253.78735 29.999999"
   version="1.1"
   id="svg8"
   sodipodi:docname="aerolighting_inkscape.svg"
   inkscape:version="0.92.4 (5da689c313, 2019-01-14)">
  <defs
     id="defs2" />
  <sodipodi:namedview
     id="base"
     pagecolor="#ffffff"
     bordercolor="#666666"
     borderopacity="1.0"
     inkscape:pageopacity="0.0"
     inkscape:pageshadow="2"
     inkscape:zoom="1.4"
     inkscape:cx="505.5255"
     inkscape:cy="67.854702"
     inkscape:document-units="mm"
     inkscape:current-layer="layer1"
     showgrid="false"
     fit-margin-top="0"
     fit-margin-left="0"
     fit-margin-right="0"
     fit-margin-bottom="0"
     inkscape:window-width="2560"
     inkscape:window-height="1376"
     inkscape:window-x="0"
     inkscape:window-y="27"
     inkscape:window-maximized="1" />
  <metadata
     id="metadata5">
    <rdf:RDF>
      <cc:Work
         rdf:about="">
        <dc:format>image/svg+xml</dc:format>
        <dc:type
           rdf:resource="http://purl.org/dc/dcmitype/StillImage" />
        <dc:title></dc:title>
      </cc:Work>
    </rdf:RDF>
  </metadata>
  <g
     inkscape:groupmode="layer"
     id="layer2"
     inkscape:label="Layer 2"
     style="display:none"
     transform="translate(86.960788,10.297195)">
    <text
       transform="matrix(1.0521229,0,-0.34215132,0.95045929,0,0)"
       id="text25"
       y="20.491106"
       x="-76.794464"
       style="font-style:normal;font-weight:normal;font-size:31.96430779px;line-height:1.25;font-family:sans-serif;letter-spacing:0px;word-spacing:0px;fill:#000000;fill-opacity:1;stroke:none;stroke-width:0.79910761"
       xml:space="preserve"><tspan
         style="font-style:normal;font-variant:normal;font-weight:800;font-stretch:normal;font-size:26.63692284px;font-family:Uniman;-inkscape-font-specification:'Uniman, Ultra-Bold';font-variant-ligatures:normal;font-variant-caps:normal;font-variant-numeric:normal;font-feature-settings:normal;text-align:start;letter-spacing:-1.56625116px;word-spacing:0px;writing-mode:lr-tb;text-anchor:start;stroke-width:0.79910761"
         y="20.491106"
         x="-76.794464"
         id="tspan23"
         sodipodi:role="line"><tspan
           id="tspan19"
           style="font-style:normal;font-variant:normal;font-weight:900;font-stretch:normal;font-size:44.75003052px;font-family:Uniman;-inkscape-font-specification:'Uniman, Heavy';font-variant-ligatures:normal;font-variant-caps:normal;font-variant-numeric:normal;font-feature-settings:normal;text-align:start;letter-spacing:-1.56625116px;word-spacing:0px;writing-mode:lr-tb;text-anchor:start;stroke-width:0.79910761">A</tspan><tspan
           id="tspan21"
           style="font-style:normal;font-variant:normal;font-weight:900;font-stretch:normal;font-size:29.83335495px;font-family:Uniman;-inkscape-font-specification:'Uniman, Heavy';font-variant-ligatures:normal;font-variant-caps:normal;font-variant-numeric:normal;font-feature-settings:normal;text-align:start;letter-spacing:-1.56625116px;word-spacing:0px;writing-mode:lr-tb;text-anchor:start;stroke-width:0.79910761">EROLIGHTING</tspan></tspan></text>
  </g>
  <g
     inkscape:label="Layer 1"
     inkscape:groupmode="layer"
     id="layer1"
     transform="translate(86.960788,-276.77465)"
     style="display:inline">
    <g
       aria-label="AEROLIGHTING"
       transform="matrix(1.0521229,0,-0.34215131,0.9504593,-1.2708334e-6,287.07184)"
       style="font-style:normal;font-weight:normal;font-size:31.96430779px;line-height:1.25;font-family:sans-serif;letter-spacing:0px;word-spacing:0px;display:inline;fill:#000000;fill-opacity:1;stroke:none;stroke-width:0.79910761"
       id="text">
      <title
         id="title190">Aerolighting</title>
      <path
         d="m -64.443456,-10.833915 h 9.621257 l 11.545508,31.325021 h -9.084256 l -2.103252,-6.444004 h -10.337257 l -2.103251,6.444004 h -9.084257 z M -56.11995,8.766598 -59.610452,-1.9286593 -63.100955,8.766598 Z"
         style="font-style:normal;font-variant:normal;font-weight:900;font-stretch:normal;font-size:44.75003052px;font-family:Uniman;-inkscape-font-specification:'Uniman, Heavy';font-variant-ligatures:normal;font-variant-caps:normal;font-variant-numeric:normal;font-feature-settings:normal;text-align:start;letter-spacing:-1.56625116px;word-spacing:0px;writing-mode:lr-tb;text-anchor:start;stroke-width:0.79910761"
         id="path165" />
      <path
         d="M -41.712304,20.491106 V -0.39224243 h 15.871345 V 4.0230941 H -35.7158 v 3.2220023 h 9.24834 v 4.4153366 h -9.24834 v 4.415337 h 10.024008 v 4.415336 z"
         style="font-style:normal;font-variant:normal;font-weight:900;font-stretch:normal;font-size:29.83335495px;font-family:Uniman;-inkscape-font-specification:'Uniman, Heavy';font-variant-ligatures:normal;font-variant-caps:normal;font-variant-numeric:normal;font-feature-settings:normal;text-align:start;letter-spacing:-1.56625116px;word-spacing:0px;writing-mode:lr-tb;text-anchor:start;stroke-width:0.79910761"
         id="path167" />
      <path
         d="M -23.583882,20.491106 V -0.39224243 h 10.561008 q 3.2816686,0 5.4595035,1.87950133 2.2076682,1.8795014 2.2076682,4.9821703 0,2.0585015 -1.1038341,3.5800028 -1.1038341,1.491668 -2.9236688,2.148001 l 4.7733368,8.293673 h -6.4738376 l -4.117003,-7.160005 -0.566834,0.02983 h -1.819835 v 7.130172 z m 6.056171,-11.5753417 h 3.759003 q 1.044167,0 1.730334,-0.6265004 0.716001,-0.6563339 0.716001,-1.8198347 0,-1.1635008 -0.716001,-1.7900013 -0.686167,-0.6563338 -1.730334,-0.6563338 h -3.759003 z"
         style="font-style:normal;font-variant:normal;font-weight:900;font-stretch:normal;font-size:29.83335495px;font-family:Uniman;-inkscape-font-specification:'Uniman, Heavy';font-variant-ligatures:normal;font-variant-caps:normal;font-variant-numeric:normal;font-feature-settings:normal;text-align:start;letter-spacing:-1.56625116px;word-spacing:0px;writing-mode:lr-tb;text-anchor:start;stroke-width:0.79910761"
         id="path169" />
      <path
         d="m 2.8023234,0.29392473 q 2.1181682,-0.924834 4.6540034,-0.924834 2.5358352,0 4.6540032,0.924834 2.118168,0.89500067 3.460669,2.41650177 1.342501,1.4916677 2.058502,3.4010024 0.745834,1.9093348 0.745834,3.9380031 0,2.028668 -0.745834,3.938003 -0.716001,1.909334 -2.058502,3.430835 -1.342501,1.491668 -3.460669,2.416502 -2.118168,0.895001 -4.6540032,0.895001 -2.5358352,0 -4.6540034,-0.895001 Q 0.68415524,18.909938 -0.65834574,17.41827 -2.0008467,15.896769 -2.7466806,13.987435 -3.4626811,12.0781 -3.4626811,10.049432 q 0,-2.0286683 0.7160005,-3.9380031 Q -2.0008467,4.2020942 -0.65834574,2.7104265 0.68415524,1.1889254 2.8023234,0.29392473 Z M 10.797663,5.4252618 Q 9.6639951,3.7844273 7.4563268,3.7844273 q -2.2076683,0 -3.3711691,1.6408345 -1.1336675,1.6110012 -1.1336675,4.6241702 0,3.013169 1.1336675,4.654003 1.1635008,1.611001 3.3711691,1.611001 2.2076683,0 3.3413362,-1.611001 1.1635,-1.640834 1.1635,-4.654003 0,-3.013169 -1.1635,-4.6241702 z"
         style="font-style:normal;font-variant:normal;font-weight:900;font-stretch:normal;font-size:29.83335495px;font-family:Uniman;-inkscape-font-specification:'Uniman, Heavy';font-variant-ligatures:normal;font-variant-caps:normal;font-variant-numeric:normal;font-feature-settings:normal;text-align:start;letter-spacing:-1.56625116px;word-spacing:0px;writing-mode:lr-tb;text-anchor:start;stroke-width:0.79910761"
         id="path171" />
      <path
         d="M 20.830524,20.491106 V -0.39224243 h 5.996504 V 16.07577 h 9.218507 v 4.415336 z"
         style="font-style:normal;font-variant:normal;font-weight:900;font-stretch:normal;font-size:29.83335495px;font-family:Uniman;-inkscape-font-specification:'Uniman, Heavy';font-variant-ligatures:normal;font-variant-caps:normal;font-variant-numeric:normal;font-feature-settings:normal;text-align:start;letter-spacing:-1.56625116px;word-spacing:0px;writing-mode:lr-tb;text-anchor:start;stroke-width:0.79910761"
         id="path173" />
      <path
         d="m 37.385707,-0.39224243 h 5.996504 V 20.491106 h -5.996504 z"
         style="font-style:normal;font-variant:normal;font-weight:900;font-stretch:normal;font-size:29.83335495px;font-family:Uniman;-inkscape-font-specification:'Uniman, Heavy';font-variant-ligatures:normal;font-variant-caps:normal;font-variant-numeric:normal;font-feature-settings:normal;text-align:start;letter-spacing:-1.56625116px;word-spacing:0px;writing-mode:lr-tb;text-anchor:start;stroke-width:0.79910761"
         id="path175" />
      <path
         d="m 65.306001,8.8262642 v 9.5765068 q -1.253001,0.895001 -3.490503,1.611001 -2.207668,0.686168 -5.280504,0.686168 -2.565668,0 -4.62417,-0.895001 -2.058501,-0.924834 -3.341336,-2.416502 -1.282834,-1.521501 -1.969001,-3.401002 -0.686167,-1.879502 -0.686167,-3.938003 0,-2.6253354 0.895001,-4.6838369 0.924834,-2.0883349 2.506001,-3.3711691 1.581168,-1.31266765 3.580003,-1.96900146 1.998835,-0.68616717 4.26617,-0.71600052 3.908169,-0.0298334 7.816339,1.76016798 l -1.491668,4.0871696 q -2.864002,-1.4618344 -5.370004,-1.4021677 -2.476168,0.059667 -4.146836,1.6706679 -1.640835,1.6110012 -1.640835,4.6241702 0,2.595502 1.014334,4.176669 1.044168,1.581168 2.625335,1.969002 0.716001,0.179 1.461835,0.179 0.984501,0 2.237501,-0.328167 V 12.1676 H 56.296327 V 8.8262642 Z"
         style="font-style:normal;font-variant:normal;font-weight:900;font-stretch:normal;font-size:29.83335495px;font-family:Uniman;-inkscape-font-specification:'Uniman, Heavy';font-variant-ligatures:normal;font-variant-caps:normal;font-variant-numeric:normal;font-feature-settings:normal;text-align:start;letter-spacing:-1.56625116px;word-spacing:0px;writing-mode:lr-tb;text-anchor:start;stroke-width:0.79910761"
         id="path177" />
      <path
         d="m 81.527881,-0.39224243 h 5.996504 V 20.491106 H 81.527881 V 11.8991 h -7.249506 v 8.592006 H 68.281871 V -0.39224243 h 5.996504 V 7.4837633 h 7.249506 z"
         style="font-style:normal;font-variant:normal;font-weight:900;font-stretch:normal;font-size:29.83335495px;font-family:Uniman;-inkscape-font-specification:'Uniman, Heavy';font-variant-ligatures:normal;font-variant-caps:normal;font-variant-numeric:normal;font-feature-settings:normal;text-align:start;letter-spacing:-1.56625116px;word-spacing:0px;writing-mode:lr-tb;text-anchor:start;stroke-width:0.79910761"
         id="path179" />
      <path
         d="m 88.87248,-0.39224243 h 17.98951 V 4.0230941 h -5.9965 V 20.491106 H 94.868984 V 4.0230941 H 88.87248 Z"
         style="font-style:normal;font-variant:normal;font-weight:900;font-stretch:normal;font-size:29.83335495px;font-family:Uniman;-inkscape-font-specification:'Uniman, Heavy';font-variant-ligatures:normal;font-variant-caps:normal;font-variant-numeric:normal;font-feature-settings:normal;text-align:start;letter-spacing:-1.56625116px;word-spacing:0px;writing-mode:lr-tb;text-anchor:start;stroke-width:0.79910761"
         id="path181" />
      <path
         d="m 108.20962,-0.39224243 h 5.99651 V 20.491106 h -5.99651 z"
         style="font-style:normal;font-variant:normal;font-weight:900;font-stretch:normal;font-size:29.83335495px;font-family:Uniman;-inkscape-font-specification:'Uniman, Heavy';font-variant-ligatures:normal;font-variant-caps:normal;font-variant-numeric:normal;font-feature-settings:normal;text-align:start;letter-spacing:-1.56625116px;word-spacing:0px;writing-mode:lr-tb;text-anchor:start;stroke-width:0.79910761"
         id="path183" />
      <path
         d="m 130.58092,-0.39224243 h 5.9965 V 20.491106 h -5.8175 L 123.18225,9.0947644 V 20.491106 h -5.99651 V -0.39224243 h 5.87717 l 7.51801,11.48584143 z"
         style="font-style:normal;font-variant:normal;font-weight:900;font-stretch:normal;font-size:29.83335495px;font-family:Uniman;-inkscape-font-specification:'Uniman, Heavy';font-variant-ligatures:normal;font-variant-caps:normal;font-variant-numeric:normal;font-feature-settings:normal;text-align:start;letter-spacing:-1.56625116px;word-spacing:0px;writing-mode:lr-tb;text-anchor:start;stroke-width:0.79910761"
         id="path185" />
      <path
         d="m 158.33712,8.8262642 v 9.5765068 q -1.253,0.895001 -3.4905,1.611001 -2.20767,0.686168 -5.28051,0.686168 -2.56566,0 -4.62417,-0.895001 -2.0585,-0.924834 -3.34133,-2.416502 -1.28284,-1.521501 -1.969,-3.401002 -0.68617,-1.879502 -0.68617,-3.938003 0,-2.6253354 0.895,-4.6838369 0.92483,-2.0883349 2.506,-3.3711691 1.58117,-1.31266765 3.58001,-1.96900146 1.99883,-0.68616717 4.26616,-0.71600052 3.90817,-0.0298334 7.81634,1.76016798 l -1.49166,4.0871696 q -2.86401,-1.4618344 -5.37001,-1.4021677 -2.47617,0.059667 -4.14683,1.6706679 -1.64084,1.6110012 -1.64084,4.6241702 0,2.595502 1.01434,4.176669 1.04416,1.581168 2.62533,1.969002 0.716,0.179 1.46184,0.179 0.9845,0 2.2375,-0.328167 V 12.1676 h -3.37117 V 8.8262642 Z"
         style="font-style:normal;font-variant:normal;font-weight:900;font-stretch:normal;font-size:29.83335495px;font-family:Uniman;-inkscape-font-specification:'Uniman, Heavy';font-variant-ligatures:normal;font-variant-caps:normal;font-variant-numeric:normal;font-feature-settings:normal;text-align:start;letter-spacing:-1.56625116px;word-spacing:0px;writing-mode:lr-tb;text-anchor:start;stroke-width:0.79910761"
         id="path187" />
    </g>
  </g>
</svg>
