<?xml version="1.0" encoding="UTF-8"?>
<!-- Created with Inkscape (http://www.inkscape.org/) -->
<svg id="svg8" version="1.1" xmlns="http://www.w3.org/2000/svg" xmlns:cc="http://creativecommons.org/ns#" xmlns:dc="http://purl.org/dc/elements/1.1/" xmlns:rdf="http://www.w3.org/1999/02/22-rdf-syntax-ns#" style="shape-rendering:geometricPrecision;">
 <metadata id="metadata5">
  <rdf:RDF>
   <cc:Work rdf:about="">
    <dc:format>image/svg+xml</dc:format>
    <dc:type rdf:resource="http://purl.org/dc/dcmitype/StillImage"/>
    <dc:title/>
   </cc:Work>
  </rdf:RDF>
 </metadata>
 <g id="layer1" transform="translate(86.961 -276.77)">
  <g id="text" transform="matrix(1.0521 0 -.34215 .95046 -1.2708e-6 287.07)" font-family="sans-serif" font-size="31.964px" letter-spacing="0px" stroke-width=".79911" word-spacing="0px" style="line-height:1.25" aria-label="AEROLIGHTING">
   <title id="title190">Aerolighting</title>
   <g stroke-width=".79911">
    <path id="path165" d="m-64.443-10.834h9.6213l11.546 31.325h-9.0843l-2.1033-6.444h-10.337l-2.1033 6.444h-9.0843zm8.3235 19.601-3.4905-10.695-3.4905 10.695z" style="font-feature-settings:normal;font-variant-caps:normal;font-variant-ligatures:normal;font-variant-numeric:normal"/>
    <path id="path167" d="m-41.712 20.491v-20.883h15.871v4.4153h-9.8748v3.222h9.2483v4.4153h-9.2483v4.4153h10.024v4.4153z" style="font-feature-settings:normal;font-variant-caps:normal;font-variant-ligatures:normal;font-variant-numeric:normal"/>
    <path id="path169" d="m-23.584 20.491v-20.883h10.561q3.2817 0 5.4595 1.8795 2.2077 1.8795 2.2077 4.9822 0 2.0585-1.1038 3.58-1.1038 1.4917-2.9237 2.148l4.7733 8.2937h-6.4738l-4.117-7.16-0.56683 0.02983h-1.8198v7.1302zm6.0562-11.575h3.759q1.0442 0 1.7303-0.6265 0.716-0.65633 0.716-1.8198t-0.716-1.79q-0.68617-0.65633-1.7303-0.65633h-3.759z" style="font-feature-settings:normal;font-variant-caps:normal;font-variant-ligatures:normal;font-variant-numeric:normal"/>
    <path id="path171" d="m2.8023 0.29392q2.1182-0.92483 4.654-0.92483t4.654 0.92483q2.1182 0.895 3.4607 2.4165 1.3425 1.4917 2.0585 3.401 0.74583 1.9093 0.74583 3.938 0 2.0287-0.74583 3.938-0.716 1.9093-2.0585 3.4308-1.3425 1.4917-3.4607 2.4165-2.1182 0.895-4.654 0.895t-4.654-0.895q-2.1182-0.92483-3.4607-2.4165-1.3425-1.5215-2.0883-3.4308-0.716-1.9093-0.716-3.938 0-2.0287 0.716-3.938 0.74583-1.9093 2.0883-3.401 1.3425-1.5215 3.4607-2.4165zm7.9953 5.1313q-1.1337-1.6408-3.3413-1.6408t-3.3712 1.6408q-1.1337 1.611-1.1337 4.6242t1.1337 4.654q1.1635 1.611 3.3712 1.611t3.3413-1.611q1.1635-1.6408 1.1635-4.654t-1.1635-4.6242z" style="font-feature-settings:normal;font-variant-caps:normal;font-variant-ligatures:normal;font-variant-numeric:normal"/>
    <path id="path173" d="m20.831 20.491v-20.883h5.9965v16.468h9.2185v4.4153z" style="font-feature-settings:normal;font-variant-caps:normal;font-variant-ligatures:normal;font-variant-numeric:normal"/>
    <path id="path175" d="m37.386-0.39224h5.9965v20.883h-5.9965z" style="font-feature-settings:normal;font-variant-caps:normal;font-variant-ligatures:normal;font-variant-numeric:normal"/>
    <path id="path177" d="m65.306 8.8263v9.5765q-1.253 0.895-3.4905 1.611-2.2077 0.68617-5.2805 0.68617-2.5657 0-4.6242-0.895-2.0585-0.92483-3.3413-2.4165-1.2828-1.5215-1.969-3.401-0.68617-1.8795-0.68617-3.938 0-2.6253 0.895-4.6838 0.92483-2.0883 2.506-3.3712 1.5812-1.3127 3.58-1.969 1.9988-0.68617 4.2662-0.716 3.9082-0.029833 7.8163 1.7602l-1.4917 4.0872q-2.864-1.4618-5.37-1.4022-2.4762 0.059667-4.1468 1.6707-1.6408 1.611-1.6408 4.6242 0 2.5955 1.0143 4.1767 1.0442 1.5812 2.6253 1.969 0.716 0.179 1.4618 0.179 0.9845 0 2.2375-0.32817v-3.8783h-3.3712v-3.3413z" style="font-feature-settings:normal;font-variant-caps:normal;font-variant-ligatures:normal;font-variant-numeric:normal"/>
    <path id="path179" d="m81.528-0.39224h5.9965v20.883h-5.9965v-8.592h-7.2495v8.592h-5.9965v-20.883h5.9965v7.876h7.2495z" style="font-feature-settings:normal;font-variant-caps:normal;font-variant-ligatures:normal;font-variant-numeric:normal"/>
    <path id="path181" d="m88.872-0.39224h17.99v4.4153h-5.9965v16.468h-5.9965v-16.468h-5.9965z" style="font-feature-settings:normal;font-variant-caps:normal;font-variant-ligatures:normal;font-variant-numeric:normal"/>
    <path id="path183" d="m108.21-0.39224h5.9965v20.883h-5.9965z" style="font-feature-settings:normal;font-variant-caps:normal;font-variant-ligatures:normal;font-variant-numeric:normal"/>
    <path id="path185" d="m130.58-0.39224h5.9965v20.883h-5.8175l-7.5777-11.396v11.396h-5.9965v-20.883h5.8772l7.518 11.486z" style="font-feature-settings:normal;font-variant-caps:normal;font-variant-ligatures:normal;font-variant-numeric:normal"/>
    <path id="path187" d="m158.34 8.8263v9.5765q-1.253 0.895-3.4905 1.611-2.2077 0.68617-5.2805 0.68617-2.5657 0-4.6242-0.895-2.0585-0.92483-3.3413-2.4165-1.2828-1.5215-1.969-3.401-0.68617-1.8795-0.68617-3.938 0-2.6253 0.895-4.6838 0.92483-2.0883 2.506-3.3712 1.5812-1.3127 3.58-1.969 1.9988-0.68617 4.2662-0.716 3.9082-0.029833 7.8163 1.7602l-1.4917 4.0872q-2.864-1.4618-5.37-1.4022-2.4762 0.059667-4.1468 1.6707-1.6408 1.611-1.6408 4.6242 0 2.5955 1.0143 4.1767 1.0442 1.5812 2.6253 1.969 0.716 0.179 1.4618 0.179 0.9845 0 2.2375-0.32817v-3.8783h-3.3712v-3.3413z" style="font-feature-settings:normal;font-variant-caps:normal;font-variant-ligatures:normal;font-variant-numeric:normal"/>
   </g>
  </g>
 </g>
</svg>
