<?xml version="1.0" encoding="UTF-8"?>
<!-- Created with Inkscape (http://www.inkscape.org/) -->
<svg width="65.512mm" height="9.5673mm" version="1.1" viewBox="0 0 65.512 9.5673" xmlns="http://www.w3.org/2000/svg" xmlns:cc="http://creativecommons.org/ns#" xmlns:dc="http://purl.org/dc/elements/1.1/" xmlns:rdf="http://www.w3.org/1999/02/22-rdf-syntax-ns#">
 <metadata>
  <rdf:RDF>
   <cc:Work rdf:about="">
    <dc:format>image/svg+xml</dc:format>
    <dc:type rdf:resource="http://purl.org/dc/dcmitype/StillImage"/>
    <dc:title/>
   </cc:Work>
  </rdf:RDF>
 </metadata>
 <g transform="translate(-78.491 -88.659)">
  <g transform="matrix(.26458 0 -.061757 .21167 21.385 18.689)" style="font-feature-settings:normal;font-variant-caps:normal;font-variant-ligatures:normal;font-variant-numeric:normal" aria-label="ASTRONICS">
   <path d="m319.9 330.57h10.176l16.512 44.8h-9.536l-3.776-10.944h-16.576l-3.712 10.944h-9.536zm11.584 28.224-6.464-18.88-6.528 18.88z" style="font-feature-settings:normal;font-variant-caps:normal;font-variant-ligatures:normal;font-variant-numeric:normal"/>
   <path d="m348.32 372.77 2.04-5.04q1.6 1 3.76 1.68t4.08 0.88h0.84q3.88 0 4.08-2.56 0.04-0.16 0.04-0.32 0-1.12-0.76-1.76-0.72-0.64-2.64-1.28-4.28-1.4-6.64-2.8-2.36-1.44-3.16-2.84t-0.8-3.4q0-0.36 0.04-0.8 0.16-2.52 1.72-4.24 1.6-1.76 3.96-2.52 2.36-0.8 5.28-0.8 5.24 0 10.04 2.04l-2.04 5.12q-4.28-1.72-7.44-1.72h-0.56q-1.6 0.08-2.56 0.72t-1.08 1.76q-0.04 0.2-0.04 0.36 0 1.16 1.12 1.88 1.16 0.72 4.36 1.76 1.8 0.64 2.92 1.08t2.32 1.16 1.84 1.52q0.64 0.76 1.04 1.92 0.4 1.12 0.4 2.6v0.8q-0.16 2.48-1.76 4.32-1.56 1.8-3.96 2.64-2.36 0.84-5.2 0.8-5.2-0.08-11.24-2.96z" style="font-feature-settings:normal;font-variant-caps:normal;font-variant-ligatures:normal;font-variant-numeric:normal"/>
   <path d="m371.52 347.37h23.32v5.12h-8.2v22.88h-6.96v-22.88h-8.16z" style="font-feature-settings:normal;font-variant-caps:normal;font-variant-ligatures:normal;font-variant-numeric:normal"/>
   <path d="m397.29 375.37v-28h13.36q4.24 0 7.08 2.48 2.88 2.44 2.88 6.56 0 2.8-1.56 4.84-1.52 2.04-4 2.88l6.48 11.24h-7.52l-5.68-9.92h-4.08v9.92zm7.04-15.08h5.44q1.68 0 2.76-1 1.12-1.04 1.12-2.88t-1.12-2.84q-1.08-1.04-2.76-1.04h-5.44z" style="font-feature-settings:normal;font-variant-caps:normal;font-variant-ligatures:normal;font-variant-numeric:normal"/>
   <path d="m431.85 348.25q2.76-1.2 6.08-1.2 3.36 0 6.08 1.2 2.76 1.2 4.48 3.24 1.76 2 2.68 4.56 0.96 2.56 0.96 5.32t-0.96 5.32q-0.92 2.56-2.68 4.6-1.72 2-4.48 3.24-2.72 1.2-6.08 1.2-3.32 0-6.08-1.2-2.72-1.24-4.44-3.24-1.72-2.04-2.68-4.6-0.92-2.56-0.92-5.32t0.92-5.32q0.96-2.56 2.68-4.56 1.72-2.04 4.44-3.24zm11.12 6.36q-1.72-2.44-5-2.44t-5 2.44q-1.72 2.4-1.72 6.76t1.72 6.8q1.72 2.4 5 2.4t5-2.4q1.72-2.44 1.72-6.8t-1.72-6.76z" style="font-feature-settings:normal;font-variant-caps:normal;font-variant-ligatures:normal;font-variant-numeric:normal"/>
   <path d="m473.68 347.37h6.96v28h-6.76l-11.16-17v17h-6.96v-28h6.88l11.04 17.12z" style="font-feature-settings:normal;font-variant-caps:normal;font-variant-ligatures:normal;font-variant-numeric:normal"/>
   <path d="m485.31 347.37h6.96v28h-6.96z" style="font-feature-settings:normal;font-variant-caps:normal;font-variant-ligatures:normal;font-variant-numeric:normal"/>
   <path d="m518.29 368.53 1.84 4.88q-4.12 2.36-8.96 2.36h-0.44q-4.12-0.12-7.4-1.8-3.24-1.72-5.2-5-1.92-3.28-1.92-7.6t1.92-7.6q1.96-3.28 5.2-4.96 3.28-1.72 7.4-1.84h0.44q4.88 0 8.96 2.36l-1.84 4.88q-3.08-2.04-6.56-2.04h-0.36q-3.6 0.16-5.68 2.52-2.04 2.36-2.04 6.68t2.04 6.68q2.08 2.36 5.68 2.52h0.36q3.48 0 6.56-2.04z" style="font-feature-settings:normal;font-variant-caps:normal;font-variant-ligatures:normal;font-variant-numeric:normal"/>
   <path d="m522.27 372.77 2.04-5.04q1.6 1 3.76 1.68t4.08 0.88h0.84q3.88 0 4.08-2.56 0.04-0.16 0.04-0.32 0-1.12-0.76-1.76-0.72-0.64-2.64-1.28-4.28-1.4-6.64-2.8-2.36-1.44-3.16-2.84t-0.8-3.4q0-0.36 0.04-0.8 0.16-2.52 1.72-4.24 1.6-1.76 3.96-2.52 2.36-0.8 5.28-0.8 5.24 0 10.04 2.04l-2.04 5.12q-4.28-1.72-7.44-1.72h-0.56q-1.6 0.08-2.56 0.72t-1.08 1.76q-0.04 0.2-0.04 0.36 0 1.16 1.12 1.88 1.16 0.72 4.36 1.76 1.8 0.64 2.92 1.08t2.32 1.16 1.84 1.52q0.64 0.76 1.04 1.92 0.4 1.12 0.4 2.6v0.8q-0.16 2.48-1.76 4.32-1.56 1.8-3.96 2.64-2.36 0.84-5.2 0.8-5.2-0.08-11.24-2.96z" style="font-feature-settings:normal;font-variant-caps:normal;font-variant-ligatures:normal;font-variant-numeric:normal"/>
  </g>
 </g>
</svg>
